<svg width="114" height="114" viewBox="0 0 114 114" fill="none" xmlns="http://www.w3.org/2000/svg">
<path d="M19.9251 68.5673C18.189 68.703 16.0509 68.4347 13.9732 68.6637C11.9795 68.8835 10.8184 70.5006 10.2839 71.2048C9.13564 72.7174 9.07418 74.9823 8.74061 77.3993C8.03543 82.5091 10.0066 85.2396 11.4775 88.3773C13.7568 93.2395 16.5654 93.7444 19.8447 94.8208C23.1252 95.8976 25.9454 94.8954 27.555 93.922C29.0987 92.9884 29.5704 91.4182 29.7693 90.4783C29.7956 90.3544 30.0328 89.9494 30.328 89.5147M30.328 89.5147C30.8253 88.7822 31.487 87.9654 31.5798 88.2676M30.328 89.5147C30.1043 89.6311 29.8923 89.697 29.697 89.7454C28.7626 89.8783 27.2877 89.6017 25.2099 88.2846C25.1464 88.1991 25.0831 88.113 25.0206 88.0264M30.328 89.5147C30.7189 89.3113 31.1453 88.954 31.5798 88.2676M31.5798 88.2676C33.5929 94.8208 43.0955 103.024 55.2851 104.106C66.0929 105.065 72.2676 104.058 79.0929 101.065C80.7928 100.319 86.2141 97.0051 88.0929 95.5647C96.5469 89.0836 97.5576 76.4486 99.8283 78.5647C101.438 80.0647 107.207 81.0647 109.942 74.5406C113.781 65.3809 112.113 57.3162 103.694 55.1086C103.07 54.9452 102.203 55.055 101.337 55.2837M101.337 55.2837C100.076 55.6168 98.8183 56.202 98.3226 56.562M101.337 55.2837C100.906 56.044 100.484 56.8595 99.8283 57.1158C99.4907 57.2478 99.0928 57.1846 98.7573 56.9461C98.6118 56.8428 98.4608 56.7165 98.3226 56.562M101.337 55.2837C101.371 55.2249 101.404 55.1664 101.438 55.1086C102.83 52.7115 101.114 47.5532 100.305 45.262C99.4872 42.9496 97.8952 40.7169 97.5576 40.076C96.4402 37.9548 104.828 42.2397 109.331 42.8398C110.212 42.9572 110.872 43.1112 111.147 42.9835C112.465 42.372 108.887 39.4451 107.207 37.8979C105.576 36.3958 104.064 34.2206 101.918 31.8703C101.403 31.3067 100.849 30.8642 100.907 30.5266C101.238 28.6084 105.374 29.26 108.264 28.3529C108.885 28.158 109.401 27.8518 109.476 27.6486C110.003 26.2065 106.074 25.3026 103.061 22.8324C99.7931 20.1521 96.8302 19.3438 93.0826 18.406C89.3666 17.4761 84.2351 16.9264 82.1613 16.7609C81.2954 16.6918 79.967 16.727 79.4165 16.5607C78.8659 16.3944 79.1311 16.0618 79.4667 15.7576C81.1343 14.2458 83.8091 11.3161 85.8949 9.62856C86.8578 8.84953 88.2379 7.69419 89.1783 6.42115C91.1223 3.78962 80.3528 5.54257 76.5409 5.60419C71.2299 5.69004 67.0906 8.3511 63.9438 9.4515C61.5169 10.3002 59.72 11.297 57.1097 12.2704C55.0433 13.041 52.7593 14.7726 49.6085 16.9217C49.0745 17.2859 48.7324 16.7335 48.7284 16.2306C48.7081 13.7014 50.4605 10.1807 51.3366 7.41805C52.0332 5.22143 53.8122 2.86886 54.5537 1.2594C54.6708 1.00525 54.0936 0.91977 53.4907 1.08454C49.7839 2.09768 46.8596 4.86263 44.5166 6.33796C42.0647 7.88187 40.3008 11.0178 38.4843 13.7386C36.7201 16.3809 36.4025 19.0023 36.2036 19.7388C35.5251 22.2504 29.048 19.333 26.5663 19.174C23.2833 18.9637 20.3431 18.7286 18.5889 19.2689C15.7145 20.1543 25.8088 23.9534 27.8242 24.7889C29.3103 25.4049 22.4972 26.7646 19.9312 27.7365C18.31 28.3505 16.4528 29.5758 11.9115 33.2153C3.84892 39.677 2.25818 43.2346 1.16906 44.986C-0.35291 47.4335 8.77678 42.8524 12.2129 41.5097C13.3592 41.0618 14.2947 40.705 14.7649 40.7403C16.6707 40.8836 12.9644 44.6512 11.8914 47.56C11.0911 49.7296 9.74935 51.7494 8.67631 53.9246C7.86427 55.5707 7.20139 57.3729 6.66487 59.653C6.53761 60.1939 6.39761 60.6537 6.52823 60.8264C8.2966 63.1656 13.6155 55.4555 15.2994 54.9299C18.4182 53.9565 16.702 62.053 17.3109 65.2821C17.5489 66.5447 18.4502 67.3624 18.7175 67.7281C20.2484 69.8234 19.6518 59.9484 20.0578 56.9221C20.1318 56.37 20.4556 56.0521 20.7912 56.115C21.1268 56.1779 21.5246 56.6426 21.7296 57.2128C22.5189 59.4084 22.3364 63.2468 23.0699 67.2491C23.3365 68.7038 23.8074 69.9021 24.3419 70.5043C26.014 72.3883 24.8844 63.6895 25.013 57.8713C25.0364 56.8123 25.8088 55.9815 26.1483 56.5148C27.7279 58.9955 27.0224 61.2606 27.2917 69.1145C27.4004 72.2841 28.63 74.3267 28.7003 77.9406C28.7215 79.027 25.6962 76.6882 23.8174 75.8082C22.7043 75.2869 21.4041 75.603 20.2687 76.2681C18.7663 77.1483 18.0523 78.942 17.6504 80.5461C16.8346 83.8026 18.5828 85.7685 19.9854 87.2197C20.7847 88.0467 22.0632 88.1899 23.1322 88.3908C23.7191 88.5011 24.3599 88.3651 25.0206 88.0264M98.3226 56.562C98.3145 56.5678 98.3067 56.5736 98.2991 56.5793C96.6652 57.8027 99.8898 60.8483 99.3472 62.6974C99.2881 62.8988 99.2307 63.101 99.1752 63.3035M98.3226 56.562C98.142 56.3601 97.9833 56.1098 97.8872 55.7991C97.0874 53.2127 98.6703 47.3916 96.5469 46.0974C96.2756 45.9321 95.7463 45.9425 95.6788 46.3007C95.3432 48.0802 95.1208 51.2928 95.4819 53.8433C95.8818 56.6675 100.333 61.7228 98.6038 62.7367C98.2662 62.9346 97.8683 62.9346 97.5327 62.7307C97.1972 62.5268 96.8581 62.156 96.731 61.6596C96.1281 59.3046 92.9049 53.8513 91.5896 49.1666C91.3163 48.1932 90.5893 47.4452 90.5206 47.881C90.2553 49.5628 90.3222 51.3257 90.6592 52.0962C92.0068 55.1768 93.2925 59.8689 95.0929 62.5647C95.6597 63.4134 97.3832 63.3179 99.1752 63.3035M99.1752 63.3035C98.3216 66.4151 97.9049 69.5886 98.4048 71.0975C98.7503 72.1403 101.223 73.6057 102.353 73.1247C102.824 72.9247 103.354 72.4564 103.694 71.9178C104.348 70.8792 106.093 68.0647 103.694 64.5647C102.866 63.357 100.986 63.2889 99.1752 63.3035ZM25.0206 88.0264C25.545 87.7575 26.0819 87.3611 26.6145 86.8588C27.2408 86.2682 27.5529 85.3284 27.6916 84.553C27.945 83.136 27.1631 81.8982 26.3613 81.0937C26.017 80.7481 25.5596 80.8201 25.1557 81.1538C24.167 81.9705 23.8114 83.4363 23.6767 84.6358C23.5516 85.7509 24.2297 86.9302 25.0206 88.0264ZM26.0928 47.2088C26.0888 47.4088 28.0928 47.2088 32.7815 54.2275C34.4103 56.6658 36.3574 61.8284 37.0928 62.0647C37.7146 62.2645 41.5928 55.5647 42.9633 47.8664C43.4113 45.3498 42.5634 42.6738 42.9633 42.0647C43.1489 41.7821 43.6284 42.8387 44.1649 43.1726C47.2759 45.1086 50.4525 48.3258 52.4719 49.839C53.6354 50.7108 56.9852 55.4803 58.5928 56.0647C60.3499 56.7034 59.9772 46.2082 60.3128 39.8884C60.3701 38.8092 60.9096 39.0225 61.3798 39.3563C65.0824 41.9845 69.6144 46.5249 72.4277 47.8664C75.0459 49.1149 77.3829 51.278 79.2577 51.9528C79.9027 52.1849 80.0715 51.5676 80.1399 50.898C80.4529 47.8303 79.8063 42.4932 80.0052 36.5628C80.071 34.6031 80.602 34.811 80.9396 35.1777C82.8915 37.2979 84.3557 40.9588 85.8949 43.5735C86.8956 45.6357 87.7074 47.2622 88.3745 48.0987C88.7764 48.5368 89.3069 49.0025 90.6572 49.0789M24.004 70.1556C23.8683 70.0922 23.7327 70.0288 23.7306 70.1944C23.7094 71.9008 25.7801 74.1824 27.219 76.5003C28.6584 78.8189 29.7515 80.9654 31.1247 82.7201C32.6664 84.6902 35.2277 85.5482 42.4758 87.2319C46.4986 88.1665 49.0743 86.9653 51.9481 85.6966C55.322 84.2071 56.0634 81.5305 56.9597 79.5109C57.7326 77.7692 58.1273 73.9571 58.4664 69.3265C58.7522 65.4246 66.3415 66.8717 67.7846 67.4707C69.2698 68.0872 69.2194 71.5633 70.1835 74.2206C71.1504 76.8857 74.8271 78.6807 77.7152 80.2751C79.4116 81.2115 81.5531 80.9816 85.3149 80.9869C88.0513 80.9907 90.458 79.6393 92.6534 78.4671C95.2348 77.0887 95.6711 74.0045 97.0422 72.0151C98.2243 70.2997 99.0998 68.0198 100.672 65.4041C101.976 63.235 102.389 61.1687 102.664 59.3858C103.011 57.1431 103.762 55.724 103.558 54.4427C103.221 52.3175 99.3876 52.6968 94.189 52.5967C91.7018 52.5488 89.5207 52.5597 83.1667 52.5967C76.6311 52.6347 74.1775 52.8924 71.7704 53.2248C70.8793 53.3479 70.054 53.6238 69.3694 54.1649C67.8817 55.3408 68.134 58.0539 67.7907 61.614C67.603 63.5603 64.7135 63.6424 63.0669 63.744C61.2616 63.8553 59.6402 64.5845 58.7501 64.7544C56.9448 65.0989 57.4448 60.9609 56.419 58.981C55.4874 57.1828 52.5195 57.7308 47.3209 57.6955C44.9692 57.6795 38.4509 58.9304 33.8114 60.1482C31.2602 60.8178 29.4966 62.0261 27.7103 62.7669C25.7924 64.0432 24.1438 65.8551 23.7327 67.2615C23.5929 67.9376 23.5929 68.5374 23.5929 69.7618M37.6082 76.2094C37.3429 76.342 37.0777 76.4747 37.0736 76.3754C37.019 75.0248 38.8058 73.731 40.0818 72.4941C41.281 71.3317 43.2265 71.3152 45.3666 70.8491C46.301 70.7824 47.7598 70.7824 48.7103 70.8821C49.6607 70.9818 50.0586 71.1813 50.8704 71.7792M75.7874 67.7729C75.5222 67.7729 75.2569 67.7729 75.3192 67.64C76.1606 65.8452 81.7836 65.7494 85.1554 66.4565C85.8265 66.7585 86.6223 67.1537 87.2311 67.4902C87.84 67.8268 88.2379 68.0925 89.0497 68.7698M56.8987 88.4591C58.6268 89.3278 61.7173 90.4013 62.5191 90.4672C64.3689 90.6194 65.2017 88.0648 66.2044 86.8911C66.6811 86.3332 67.8783 87.8534 69.3512 89.0008C70.0355 89.5339 71.0934 89.3991 72.0298 89.1341C72.7009 88.6065 73.3721 87.8024 74.1075 86.9317C74.4451 86.5263 74.7104 86.1947 74.9836 85.6506M31.178 92.8877C29.8437 94.0127 27.9709 96.2936 24.0264 99.7018C21.5052 101.88 19.5273 103.738 19.1897 104.04C17.8411 105.244 23.3974 103.065 26.2106 102.225C27.3871 101.874 28.4934 101.726 29.0982 101.718C31.1609 101.69 27.4324 105.598 26.6929 107.916C26.0165 110.037 25.4189 111.161 25.4832 111.729C25.9196 115.585 35.446 105.029 37.6684 103.341C38.1386 103.071 38.6691 102.805 39.1413 102.468C39.6136 102.13 40.0114 101.728 40.8232 101.123M91.8629 91.0777C91.8589 91.2766 93.4624 92.2058 97.3386 94.1451C99.2734 95.1131 100.7 95.5601 101.303 95.4328C104.643 94.7275 100.037 89.8071 99.8343 89.1022C99.4822 87.8795 102.706 89.3971 107.981 89.4986C109.662 89.5309 111.387 89.598 112.076 89.3667C109.703 86.9305 104.329 84.3775 101.052 82.3118C100.307 81.8373 99.9087 81.6379 99.4987 81.0305" stroke="black" stroke-width="2" stroke-linecap="round"/>
</svg>
