<svg width="63" height="27" viewBox="0 0 63 27" fill="none" xmlns="http://www.w3.org/2000/svg">
<path d="M3.44531 21.1289C3.25781 21.2227 3.05859 21.2812 2.84766 21.3047C2.63672 21.3047 2.42578 21.3047 2.21484 21.3047C2.00391 21.3047 1.79297 21.3164 1.58203 21.3398C1.37109 21.3398 1.16016 21.3867 0.949219 21.4805C0.550781 21.5273 0.292969 21.5039 0.175781 21.4102C0.0585938 21.293 0.0234375 21.1406 0.0703125 20.9531C0.117188 20.7656 0.246094 20.5547 0.457031 20.3203C0.667969 20.0859 0.914062 19.8867 1.19531 19.7227C1.45312 19.5586 1.73438 19.4414 2.03906 19.3711C2.36719 19.3008 2.66016 19.3125 2.91797 19.4062C2.80078 18.9844 2.8125 18.6211 2.95312 18.3164C3.09375 18.0117 3.375 17.8594 3.79688 17.8594C4.00781 17.8594 4.19531 17.8828 4.35938 17.9297C4.54688 17.9531 4.6875 18.0469 4.78125 18.2109C5.13281 18 5.60156 17.6484 6.1875 17.1562C6.77344 16.6406 7.37109 16.125 7.98047 15.6094C8.61328 15.0703 9.1875 14.6016 9.70312 14.2031C10.2188 13.7812 10.5703 13.5703 10.7578 13.5703C10.8281 13.5703 10.9219 13.582 11.0391 13.6055C11.1562 13.6055 11.2734 13.6289 11.3906 13.6758C11.5312 13.7227 11.6367 13.7812 11.707 13.8516C11.8008 13.8984 11.8477 13.9805 11.8477 14.0977V15.6094C11.6836 16.2656 11.5195 16.8867 11.3555 17.4727C11.2148 18.0352 11.0859 18.5977 10.9688 19.1602C10.875 19.6992 10.8047 20.25 10.7578 20.8125C10.7109 21.375 10.6875 21.9727 10.6875 22.6055C11.0625 22.6055 11.5078 22.5234 12.0234 22.3594C12.5625 22.1953 13.1016 21.9961 13.6406 21.7617C14.1797 21.5273 14.6836 21.293 15.1523 21.0586C15.6211 20.8008 15.9961 20.5898 16.2773 20.4258C16.3242 20.4023 16.4297 20.3203 16.5938 20.1797C16.7578 20.0391 16.9336 19.8984 17.1211 19.7578C17.3086 19.5938 17.4844 19.4531 17.6484 19.3359C17.8359 19.1953 17.9531 19.1016 18 19.0547C18.0469 19.0078 18.1641 18.9492 18.3516 18.8789C18.5391 18.7852 18.6445 18.7266 18.668 18.7031C18.7617 18.6797 18.8438 18.7148 18.9141 18.8086C19.0078 18.8789 19.0898 18.9727 19.1602 19.0898C19.2305 19.1836 19.2773 19.2891 19.3008 19.4062C19.3477 19.5 19.3711 19.5586 19.3711 19.582C19.3711 19.8164 19.2773 20.0508 19.0898 20.2852C18.9023 20.5195 18.6797 20.7422 18.4219 20.9531C18.1641 21.1406 17.8945 21.3281 17.6133 21.5156C17.3555 21.6797 17.1562 21.832 17.0156 21.9727C16.8281 22.0664 16.5 22.2188 16.0312 22.4297C15.5859 22.6406 15.1055 22.8633 14.5898 23.0977C14.0742 23.332 13.582 23.5547 13.1133 23.7656C12.668 23.9766 12.3516 24.1289 12.1641 24.2227C12.1172 24.2461 12.0117 24.2812 11.8477 24.3281C11.6836 24.3516 11.5078 24.3984 11.3203 24.4688C11.1328 24.5391 10.9453 24.5977 10.7578 24.6445C10.5938 24.668 10.4883 24.6914 10.4414 24.7148C10.2305 24.7852 10.0664 24.9023 9.94922 25.0664C9.85547 25.2305 9.75 25.3945 9.63281 25.5586C9.53906 25.7227 9.41016 25.8633 9.24609 25.9805C9.10547 26.0977 8.87109 26.1328 8.54297 26.0859C8.51953 26.0625 8.41406 26.0156 8.22656 25.9453C8.0625 25.8516 7.95703 25.7812 7.91016 25.7344C7.34766 25.3359 6.86719 24.9609 6.46875 24.6094C6.07031 24.2578 5.70703 23.918 5.37891 23.5898C5.05078 23.2383 4.73438 22.8633 4.42969 22.4648C4.14844 22.0664 3.82031 21.6211 3.44531 21.1289ZM5.66016 19.7227C5.82422 20.0742 5.97656 20.4141 6.11719 20.7422C6.28125 21.0703 6.46875 21.3867 6.67969 21.6914C6.89062 21.9727 7.125 22.2188 7.38281 22.4297C7.66406 22.6406 8.00391 22.7695 8.40234 22.8164C8.44922 22.4648 8.50781 22.043 8.57812 21.5508C8.64844 21.0586 8.73047 20.543 8.82422 20.0039C8.91797 19.4648 9.02344 18.9375 9.14062 18.4219C9.28125 17.8828 9.43359 17.4141 9.59766 17.0156H9.24609C8.87109 17.2734 8.51953 17.5312 8.19141 17.7891C7.88672 18.0234 7.58203 18.2578 7.27734 18.4922C6.97266 18.7031 6.72656 18.8906 6.53906 19.0547C6.51562 19.0781 6.48047 19.1133 6.43359 19.1602C6.38672 19.207 6.35156 19.2305 6.32812 19.2305C6.30469 19.2773 6.19922 19.3594 6.01172 19.4766C5.82422 19.5938 5.70703 19.6758 5.66016 19.7227ZM9.59766 16.4883C9.52734 16.4883 9.49219 16.5469 9.49219 16.6641C9.49219 16.7578 9.52734 16.8047 9.59766 16.8047C9.69141 16.8047 9.73828 16.7578 9.73828 16.6641C9.73828 16.5469 9.69141 16.4883 9.59766 16.4883ZM26.1998 18.1758C26.153 18.082 26.0709 17.9531 25.9538 17.7891C25.86 17.6016 25.7428 17.5078 25.6022 17.5078C25.1569 17.5078 24.6998 17.707 24.2311 18.1055C23.7858 18.4805 23.3522 18.9375 22.9303 19.4766C22.5319 19.9922 22.1803 20.5195 21.8756 21.0586C21.5944 21.5977 21.4186 22.0195 21.3483 22.3242C21.2545 22.6289 21.2077 22.9922 21.2077 23.4141C21.2077 23.8359 21.1725 24.2344 21.1022 24.6094C21.0553 24.9844 20.9264 25.3008 20.7155 25.5586C20.528 25.8164 20.1881 25.9453 19.6959 25.9453C19.3913 25.9453 19.1803 25.8867 19.0631 25.7695C18.9694 25.6289 18.9225 25.4062 18.9225 25.1016C19.0866 23.9766 19.2272 23.0508 19.3444 22.3242C19.485 21.5977 19.6022 20.9648 19.6959 20.4258C19.8131 19.8633 19.9186 19.3242 20.0123 18.8086C20.1295 18.2695 20.2584 17.625 20.3991 16.875C20.5397 16.125 20.692 15.2109 20.8561 14.1328C21.0202 13.0312 21.2194 11.6367 21.4538 9.94922C21.4538 9.59766 21.4772 9.10547 21.5241 8.47266C21.5709 7.81641 21.653 7.125 21.7702 6.39844C21.9108 5.64844 22.0866 4.89844 22.2975 4.14844C22.5084 3.375 22.7663 2.68359 23.0709 2.07422C23.3991 1.46484 23.7741 0.972656 24.1959 0.597656C24.6178 0.199219 25.11 0 25.6725 0C26.0709 0 26.3873 0.140625 26.6217 0.421875C26.8795 0.679688 27.067 0.996094 27.1842 1.37109C27.3248 1.74609 27.4069 2.14453 27.4303 2.56641C27.4538 2.96484 27.4655 3.29297 27.4655 3.55078C27.4655 4.13672 27.4186 4.69922 27.3248 5.23828C27.2311 5.75391 27.1139 6.28125 26.9733 6.82031C26.8327 7.33594 26.6803 7.86328 26.5163 8.40234C26.3522 8.91797 26.2116 9.43359 26.0944 9.94922L23.8444 14.2383L22.5788 16.9805L22.7545 17.3672C23.2467 16.7812 23.7506 16.3359 24.2663 16.0312C24.7819 15.7031 25.4264 15.5156 26.1998 15.4688C26.5514 15.4453 26.8444 15.5508 27.0788 15.7852C27.3366 16.0195 27.5475 16.3242 27.7116 16.6992C27.8756 17.0508 27.9928 17.4141 28.0631 17.7891C28.1569 18.1641 28.2155 18.4688 28.2389 18.7031C28.2389 18.8438 28.2272 19.0664 28.2038 19.3711C28.1803 19.6758 28.1569 20.0273 28.1334 20.4258C28.11 20.8242 28.0866 21.2461 28.0631 21.6914C28.0631 22.1133 28.0866 22.5117 28.1334 22.8867C28.1803 23.2617 28.2741 23.5898 28.4147 23.8711C28.5788 24.1289 28.7897 24.2812 29.0475 24.3281C29.9616 24.2109 30.7702 24.0586 31.4733 23.8711C32.1998 23.6602 32.8327 23.3789 33.3717 23.0273C33.9108 22.6523 34.3561 22.1836 34.7077 21.6211C35.0827 21.0586 35.3639 20.3672 35.5514 19.5469C35.7155 19.3125 35.9498 19.1953 36.2545 19.1953C36.6061 19.1953 36.8288 19.3242 36.9225 19.582C37.0397 19.8398 37.0983 20.1211 37.0983 20.4258C37.0983 21.3633 36.7936 22.1953 36.1842 22.9219C35.5983 23.625 34.8483 24.2109 33.9342 24.6797C33.0202 25.1484 32.0358 25.5117 30.9811 25.7695C29.9264 26.0039 28.9538 26.1211 28.0631 26.1211C27.5006 26.1211 27.1139 25.9336 26.903 25.5586C26.692 25.1602 26.5631 24.6914 26.5163 24.1523C26.4928 23.5898 26.4928 23.0273 26.5163 22.4648C26.5397 21.9023 26.5397 21.4453 26.5163 21.0938C26.5163 20.9766 26.5045 20.7891 26.4811 20.5312C26.4577 20.25 26.4225 19.957 26.3756 19.6523C26.3522 19.3477 26.317 19.0547 26.2702 18.7734C26.2233 18.4922 26.1998 18.293 26.1998 18.1758ZM23.317 9.73828C23.317 9.80859 23.317 9.92578 23.317 10.0898C23.317 10.2539 23.317 10.4062 23.317 10.5469C23.3405 10.6875 23.3522 10.8164 23.3522 10.9336C23.3522 11.0508 23.3522 11.1211 23.3522 11.1445L23.528 11.3203C23.7623 11.1797 23.9733 10.9336 24.1608 10.582C24.3717 10.2305 24.5592 9.80859 24.7233 9.31641C24.8873 8.82422 25.028 8.30859 25.1452 7.76953C25.2858 7.20703 25.403 6.65625 25.4967 6.11719C25.5905 5.57812 25.6608 5.08594 25.7077 4.64062C25.778 4.19531 25.8131 3.83203 25.8131 3.55078C25.8131 3.45703 25.8014 3.28125 25.778 3.02344C25.778 2.76562 25.7663 2.61328 25.7428 2.56641L25.567 2.21484C25.0045 2.66016 24.5709 3.1875 24.2663 3.79688C23.9616 4.40625 23.7389 5.03906 23.5983 5.69531C23.4577 6.35156 23.3756 7.03125 23.3522 7.73438C23.3288 8.4375 23.317 9.10547 23.317 9.73828ZM36.8958 25.2422C36.9661 24.6562 37.0598 24.1055 37.177 23.5898C37.2942 23.0508 37.4231 22.5234 37.5638 22.0078C37.7044 21.4922 37.8567 20.9648 38.0208 20.4258C38.2083 19.8633 38.4075 19.2305 38.6184 18.5273V18.3516C37.6809 18.8906 37.013 19.1602 36.6145 19.1602C36.2395 19.1602 36.052 19.0195 36.052 18.7383C36.0286 18.457 36.1458 18.082 36.4036 17.6133C36.6848 17.1445 37.013 16.7109 37.388 16.3125C37.7864 15.9141 38.1848 15.5977 38.5833 15.3633C39.0052 15.1289 39.3333 15.0938 39.5677 15.2578C39.8489 15.2578 40.0716 15.3047 40.2356 15.3984C40.4231 15.4922 40.6223 15.6328 40.8333 15.8203C41.3723 15.3984 41.8763 15.0586 42.345 14.8008C42.8138 14.543 43.3763 14.4141 44.0325 14.4141C45.0638 14.4141 45.8372 14.6484 46.3528 15.1172C46.8919 15.5859 47.2786 16.3359 47.513 17.3672C47.9114 16.9688 48.2747 16.6055 48.6028 16.2773C48.9309 15.9258 49.2825 15.6328 49.6575 15.3984C50.0559 15.1406 50.4778 14.9531 50.9231 14.8359C51.3684 14.6953 51.8723 14.625 52.4348 14.625C52.9036 14.625 53.3606 14.8008 53.8059 15.1523C54.2513 15.5039 54.5677 15.8906 54.7552 16.3125C54.7552 16.4062 54.7552 16.6172 54.7552 16.9453C54.7552 17.2734 54.7552 17.4961 54.7552 17.6133C54.7552 18.4102 54.6614 19.1836 54.4739 19.9336C54.2864 20.6602 54.1927 21.4102 54.1927 22.1836C54.1927 22.5117 54.2278 22.8516 54.2981 23.2031C54.3919 23.5312 54.6497 23.6953 55.0716 23.6953C55.6341 23.6953 56.138 23.5781 56.5833 23.3438C57.052 23.1094 57.4739 22.8281 57.8489 22.5C58.2473 22.1484 58.5989 21.7734 58.9036 21.375C59.2317 20.9766 59.5247 20.6133 59.7825 20.2852C60.0638 19.9336 60.3216 19.6406 60.5559 19.4062C60.7903 19.1719 61.0247 19.0547 61.2591 19.0547C61.4231 19.0547 61.5989 19.125 61.7864 19.2656C61.9973 19.3828 62.1028 19.5352 62.1028 19.7227C62.1028 19.7461 62.0911 19.7812 62.0677 19.8281C62.0677 19.875 62.0677 19.9102 62.0677 19.9336C61.8333 20.6602 61.4934 21.3516 61.0481 22.0078C60.6028 22.6641 60.0872 23.25 59.5013 23.7656C58.9153 24.2578 58.2591 24.6562 57.5325 24.9609C56.8294 25.2422 56.0794 25.3828 55.2825 25.3828C54.5325 25.3828 53.8997 25.2891 53.3841 25.1016C52.8684 24.8906 52.47 24.4219 52.1888 23.6953C52.1888 23.625 52.177 23.4727 52.1536 23.2383C52.1536 22.9805 52.1536 22.8281 52.1536 22.7812C52.1536 21.8906 52.2356 21.0352 52.3997 20.2148C52.5872 19.3945 52.6809 18.5625 52.6809 17.7188C52.6809 17.6484 52.6692 17.4961 52.6458 17.2617C52.6458 17.0273 52.6458 16.875 52.6458 16.8047C52.552 16.6875 52.3997 16.6289 52.1888 16.6289C52.0013 16.6289 51.8255 16.6289 51.6614 16.6289C51.1692 16.6289 50.7005 16.8047 50.2552 17.1562C49.8098 17.5078 49.3997 17.9531 49.0247 18.4922C48.6497 19.0312 48.3098 19.6406 48.0052 20.3203C47.7239 20.9766 47.4778 21.6445 47.2669 22.3242C47.0559 22.9805 46.8802 23.6016 46.7395 24.1875C46.6223 24.75 46.552 25.2188 46.5286 25.5938L46.1419 25.9453H44.9466C44.7356 25.9453 44.6184 25.8398 44.595 25.6289C44.595 25.3945 44.595 25.2188 44.595 25.1016C44.595 24.5391 44.6302 23.9766 44.7005 23.4141C44.7942 22.8281 44.888 22.2539 44.9817 21.6914C45.0989 21.1055 45.2044 20.5195 45.2981 19.9336C45.3919 19.3477 45.4505 18.7734 45.4739 18.2109C45.4505 18.0234 45.427 17.8242 45.4036 17.6133C45.3802 17.3789 45.3333 17.168 45.263 16.9805C45.1927 16.793 45.0872 16.6406 44.9466 16.5234C44.8059 16.3828 44.6067 16.3125 44.3489 16.3125C43.9739 16.3125 43.6106 16.3828 43.2591 16.5234C42.9075 16.6641 42.5794 16.8516 42.2747 17.0859C41.9934 17.2969 41.7356 17.5664 41.5013 17.8945C41.2903 18.1992 41.138 18.5391 41.0442 18.9141L38.9348 25.7344L38.6184 26.0859C38.6184 26.0859 38.5481 26.0859 38.4075 26.0859C38.2669 26.1094 38.1614 26.1211 38.0911 26.1211C37.8333 26.1211 37.5638 26.0977 37.2825 26.0508C37.0247 25.9805 36.8958 25.7578 36.8958 25.3828V25.2422Z" fill="black"/>
</svg>
