<svg width="61" height="26" viewBox="0 0 61 26" fill="none" xmlns="http://www.w3.org/2000/svg">
<path d="M0 21.8848C0 21.1465 0.1875 20.5898 0.5625 20.2148C0.949219 19.8398 1.35938 19.6523 1.79297 19.6523C2.15625 19.6523 2.44922 19.7695 2.67188 20.0039C2.90625 20.2266 3.02344 20.502 3.02344 20.8301C3.02344 21.1934 2.87695 21.5684 2.58398 21.9551C2.29102 22.3418 1.82227 22.5469 1.17773 22.5703C1.70508 23.9062 2.86523 24.5742 4.6582 24.5742C4.66992 24.5742 4.6875 24.5742 4.71094 24.5742C6.19922 24.5742 7.3418 24.1406 8.13867 23.2734C8.94727 22.3945 9.35156 21.4863 9.35156 20.5488C9.35156 19.9746 9.18164 19.4941 8.8418 19.1074C8.51367 18.7207 8.17383 18.4688 7.82227 18.3516C7.4707 18.2344 6.97852 18.1055 6.3457 17.9648C5.71289 17.8125 5.30859 17.7129 5.13281 17.666C4.51172 17.4785 3.9668 17.1152 3.49805 16.5762C3.0293 16.0371 2.79492 15.3223 2.79492 14.4316C2.79492 13.1895 3.28711 11.9883 4.27148 10.8281C5.25586 9.65625 6.66211 9.07031 8.49023 9.07031C9.61523 9.07031 10.5352 9.35156 11.25 9.91406C11.9766 10.4766 12.3398 11.2266 12.3398 12.1641C12.3398 12.832 12.1816 13.3242 11.8652 13.6406C11.5605 13.957 11.2148 14.1152 10.8281 14.1152C10.5352 14.1152 10.2891 14.0215 10.0898 13.834C9.89062 13.6348 9.79102 13.3887 9.79102 13.0957C9.79102 12.7793 9.9082 12.4863 10.1426 12.2168C10.3887 11.9355 10.7227 11.748 11.1445 11.6543C10.7578 10.4824 9.86133 9.89648 8.45508 9.89648C7.30664 9.89648 6.41602 10.2539 5.7832 10.9688C5.16211 11.6719 4.85156 12.4043 4.85156 13.166C4.85156 13.3301 4.86914 13.4883 4.9043 13.6406C4.93945 13.7812 4.98047 13.9102 5.02734 14.0273C5.07422 14.1328 5.13867 14.2324 5.2207 14.3262C5.31445 14.4199 5.39648 14.502 5.4668 14.5723C5.53711 14.6426 5.625 14.7129 5.73047 14.7832C5.83594 14.8418 5.92969 14.8887 6.01172 14.9238C6.10547 14.959 6.21094 14.9941 6.32812 15.0293C6.44531 15.0645 6.52734 15.0879 6.57422 15.0996C6.62109 15.1113 6.69141 15.1289 6.78516 15.1523C6.89062 15.1758 6.95508 15.1875 6.97852 15.1875C7.00195 15.1875 7.10742 15.2051 7.29492 15.2402C7.49414 15.2754 7.66406 15.3105 7.80469 15.3457C7.94531 15.3809 8.14453 15.4395 8.40234 15.5215C8.67188 15.5918 8.90039 15.6797 9.08789 15.7852C9.28711 15.8906 9.50977 16.0195 9.75586 16.1719C10.0137 16.3125 10.2305 16.4824 10.4062 16.6816C10.5938 16.8809 10.7637 17.1035 10.916 17.3496C11.0684 17.584 11.1855 17.8711 11.2676 18.2109C11.3613 18.5508 11.4082 18.9082 11.4082 19.2832C11.4082 19.8809 11.2793 20.5137 11.0215 21.1816C10.7754 21.8379 10.4062 22.4941 9.91406 23.1504C9.42188 23.7949 8.71875 24.3281 7.80469 24.75C6.89062 25.1719 5.84766 25.3828 4.67578 25.3828C3.30469 25.3828 2.17969 25.0605 1.30078 24.416C0.433594 23.7598 0 22.916 0 21.8848ZM14.7305 24.3984C14.7305 24.2578 14.8594 23.6367 15.1172 22.5352L19.916 3.41016C20.0566 2.85938 20.127 2.45508 20.127 2.19727C20.127 1.81055 19.916 1.59961 19.4941 1.56445C19.0723 1.5293 18.6445 1.50586 18.2109 1.49414C17.7773 1.48242 17.5605 1.31836 17.5605 1.00195C17.5605 0.708984 17.7363 0.515625 18.0879 0.421875C18.4395 0.328125 19.1309 0.246094 20.1621 0.175781C20.7598 0.128906 21.252 0.09375 21.6387 0.0703125C21.9785 0.0234375 22.2188 0 22.3594 0C22.7461 0 22.9395 0.152344 22.9395 0.457031C22.9395 0.597656 22.7812 1.30078 22.4648 2.56641C22.1484 3.83203 21.75 5.39648 21.2695 7.25977C20.7891 9.11133 20.4434 10.5176 20.2324 11.4785C21.6973 9.87305 23.291 9.07031 25.0137 9.07031H25.0488C26.0566 9.07031 26.9355 9.35742 27.6855 9.93164C28.4473 10.5059 28.8281 11.4668 28.8281 12.8145C28.8281 14.0098 28.3535 15.9668 27.4043 18.6855C26.4668 21.3926 25.998 23.0098 25.998 23.5371C25.998 24.2051 26.2734 24.5391 26.8242 24.5391C28.1719 24.5391 29.2383 23.1387 30.0234 20.3379C30.1172 19.9512 30.2461 19.6992 30.4102 19.582C30.5859 19.4648 30.7676 19.4414 30.9551 19.5117C31.1543 19.582 31.2539 19.7227 31.2539 19.9336C31.2539 20.0742 31.1602 20.4141 30.9727 20.9531C30.7969 21.4805 30.5391 22.084 30.1992 22.7637C29.8711 23.4434 29.3848 24.0527 28.7402 24.5918C28.1074 25.1191 27.4219 25.3828 26.6836 25.3828C25.8867 25.3828 25.2363 25.1133 24.7324 24.5742C24.2285 24.0234 23.9766 23.332 23.9766 22.5C23.9766 22.0195 24.416 20.502 25.2949 17.9473C26.1855 15.3926 26.6309 13.4883 26.6309 12.2344C26.6309 10.6758 26.0684 9.89648 24.9434 9.89648C24.1699 9.89648 23.4375 10.1074 22.7461 10.5293C22.0547 10.9512 21.4805 11.4785 21.0234 12.1113C20.5664 12.7441 20.2148 13.2715 19.9688 13.6934C19.7344 14.1152 19.5586 14.4668 19.4414 14.748L17.2441 23.502C16.9512 24.7441 16.4355 25.3711 15.6973 25.3828C15.4277 25.3828 15.1992 25.2891 15.0117 25.1016C14.8242 24.9258 14.7305 24.6914 14.7305 24.3984ZM34.9102 24.3984C34.9102 24.3047 34.9688 23.959 35.0859 23.3613L37.8633 12.2695C37.8633 12.1992 37.8809 12.0996 37.916 11.9707C37.9512 11.8301 37.9688 11.7246 37.9688 11.6543C37.9688 11.2207 37.5352 10.998 36.668 10.9863C35.8125 10.9746 35.3848 10.8047 35.3848 10.4766C35.3848 10.1602 35.5664 9.95508 35.9297 9.86133C36.3047 9.76758 37.1895 9.68555 38.584 9.61523C38.877 9.47461 39.2988 9.39844 39.8496 9.38672C40.5176 9.38672 40.8516 9.56836 40.8516 9.93164C40.8516 10.0488 40.7402 10.541 40.5176 11.4082C42.0059 9.84961 43.6055 9.07031 45.3164 9.07031C47.4727 9.07031 48.7207 10.1016 49.0605 12.1641C49.0605 12.2109 49.0605 12.2461 49.0605 12.2695C50.502 10.1367 52.3008 9.07031 54.457 9.07031C55.6055 9.07031 56.5195 9.39844 57.1992 10.0547C57.8906 10.7109 58.2363 11.6309 58.2363 12.8145C58.2363 13.9629 57.7617 15.9199 56.8125 18.6855C55.8633 21.4395 55.3887 23.0684 55.3887 23.5723C55.3887 24.2168 55.6641 24.5391 56.2148 24.5391C56.9297 24.5391 57.5508 24.1523 58.0781 23.3789C58.6172 22.5938 59.0215 21.7734 59.291 20.918C59.5723 20.0508 59.748 19.5938 59.8184 19.5469C59.9355 19.4766 60.0586 19.4414 60.1875 19.4414C60.5156 19.4414 60.6797 19.582 60.6797 19.8633C60.6797 20.0508 60.5918 20.4141 60.416 20.9531C60.2402 21.4805 59.9824 22.084 59.6426 22.7637C59.3027 23.4434 58.8164 24.0527 58.1836 24.5918C57.5508 25.1191 56.8594 25.3828 56.1094 25.3828C55.2891 25.3828 54.627 25.1074 54.123 24.5566C53.6309 23.9941 53.3848 23.2969 53.3848 22.4648C53.3848 22.0547 53.8242 20.543 54.7031 17.9297C55.5938 15.3047 56.0391 13.3711 56.0391 12.1289C56.0391 10.6406 55.4531 9.89648 54.2812 9.89648C53.5898 9.89648 52.9102 10.0957 52.2422 10.4941C51.5859 10.8809 51.0293 11.373 50.5723 11.9707C50.1152 12.5566 49.752 13.084 49.4824 13.5527C49.2246 14.0215 49.0254 14.4199 48.8848 14.748C48.791 15.041 48.0469 17.9824 46.6523 23.5723L46.6172 23.7832C46.5703 23.9238 46.5293 24.0527 46.4941 24.1699C46.4707 24.2754 46.418 24.4102 46.3359 24.5742C46.2539 24.7266 46.166 24.8555 46.0723 24.9609C45.9785 25.0664 45.8438 25.1602 45.668 25.2422C45.5039 25.3359 45.3281 25.3828 45.1406 25.3828C44.8477 25.3828 44.6016 25.2832 44.4023 25.084C44.2148 24.8965 44.1211 24.6562 44.1211 24.3633C44.1211 24.0469 44.5781 22.1719 45.4922 18.7383C46.4062 15.293 46.8633 13.1133 46.8633 12.1992C46.8633 10.6641 46.3008 9.89648 45.1758 9.89648C44.4609 9.89648 43.7578 10.1016 43.0664 10.5117C42.3867 10.9219 41.8184 11.4199 41.3613 12.0059C40.9043 12.5918 40.5469 13.0957 40.2891 13.5176C40.043 13.9395 39.8672 14.2793 39.7617 14.5371C39.6914 14.7012 38.8887 17.8711 37.3535 24.0469C37.1426 24.9609 36.6621 25.418 35.9121 25.418C35.6191 25.418 35.3789 25.3125 35.1914 25.1016C35.0039 24.9023 34.9102 24.668 34.9102 24.3984Z" fill="black"/>
</svg>
